<?xml version="1.0" standalone="no"?>
<!DOCTYPE svg PUBLIC "-//W3C//DTD SVG 20010904//EN"
 "http://www.w3.org/TR/2001/REC-SVG-20010904/DTD/svg10.dtd">
<svg version="1.0" xmlns="http://www.w3.org/2000/svg"
 width="3000.000000pt" height="2000.000000pt" viewBox="0 0 3000.000000 2000.000000"
 preserveAspectRatio="xMidYMid meet">

<g transform="translate(0.000000,2000.000000) scale(0.100000,-0.100000)"
fill="#000000" stroke="none">
<path d="M0 10000 l0 -10000 15000 0 15000 0 0 2355 c0 1433 -4 2355 -9 2355
-5 0 -22 -10 -38 -22 -42 -34 -91 -68 -98 -68 -3 0 -15 -9 -27 -19 -30 -28
-79 -50 -97 -43 -10 4 -11 7 -3 10 7 2 12 9 12 16 0 7 11 25 24 39 13 14 22
28 20 30 -2 2 45 55 106 118 l109 114 1 5231 c0 4859 -1 5233 -17 5264 -15 31
-15 36 0 63 16 26 17 199 17 2293 l0 2264 -33 0 c-27 0 -47 -15 -127 -90 -52
-50 -119 -112 -149 -138 -29 -26 -76 -68 -103 -94 -27 -27 -50 -48 -52 -48 -2
0 -66 -61 -142 -135 -77 -74 -147 -143 -157 -152 -11 -10 -28 -39 -40 -65 -15
-35 -30 -52 -63 -68 -25 -14 -48 -19 -56 -14 -10 6 -10 4 1 -10 8 -9 21 -14
29 -11 10 4 13 0 9 -15 -3 -11 -1 -18 4 -14 5 3 9 -19 9 -50 0 -30 -5 -58 -11
-61 -6 -4 -8 -14 -5 -22 3 -8 2 -11 -3 -8 -6 3 -26 -4 -46 -15 -23 -13 -45
-18 -58 -14 -20 6 -20 6 -4 -10 26 -26 21 -35 -24 -42 -34 -6 -41 -11 -46 -36
-3 -16 -16 -37 -29 -47 -13 -10 -24 -28 -24 -39 0 -23 -51 -79 -78 -84 -16 -4
276 -158 299 -158 5 0 19 -9 30 -19 12 -11 49 -30 82 -42 34 -13 71 -31 81
-41 11 -10 25 -18 31 -18 6 0 19 -6 28 -12 16 -12 15 -13 -5 -14 -13 -1 -33
-5 -45 -9 -20 -6 -23 -4 -23 19 0 33 -13 33 -38 1 -12 -15 -30 -25 -46 -25
-24 0 -26 -4 -26 -40 0 -36 -2 -40 -25 -40 -22 0 -25 -4 -25 -40 l0 -40 -40 0
-40 0 0 -40 0 -40 -40 0 -40 0 0 -40 0 -40 -40 0 -40 0 0 -40 0 -40 -40 0 -40
0 0 -40 0 -40 -40 0 -40 0 0 -40 0 -40 -40 0 -40 0 0 -40 0 -40 -40 0 -40 0 0
-40 0 -40 -40 0 -40 0 0 -40 0 -40 -80 0 -80 0 0 -80 0 -79 -77 -3 -78 -3 -3
-37 c-3 -32 0 -38 15 -38 12 0 23 -12 31 -33 15 -43 15 -47 -3 -47 -8 0 -15 9
-15 20 0 10 -6 23 -13 27 -7 4 -21 25 -30 45 -10 20 -22 40 -27 43 -6 3 -10
19 -10 35 0 16 -6 33 -12 37 -14 9 -18 15 -79 130 -22 43 -47 85 -55 94 -8 8
-14 23 -14 31 0 9 -7 21 -15 28 -13 11 -20 10 -41 -1 -25 -13 -67 -62 -90
-104 -6 -11 -23 -26 -38 -33 -15 -7 -53 -40 -86 -72 -33 -32 -72 -65 -87 -72
-32 -15 -58 -59 -41 -69 16 -10 -9 -21 -31 -14 -13 4 -25 -2 -39 -20 -11 -14
-27 -25 -37 -25 -9 0 -34 -18 -55 -40 -21 -22 -43 -40 -48 -40 -5 0 -12 -7
-16 -15 -3 -9 -22 -25 -43 -38 -28 -16 -33 -23 -20 -25 30 -6 18 -20 -34 -40
l-51 -19 56 -26 c31 -15 58 -27 61 -27 2 0 36 -15 77 -34 40 -18 84 -37 98
-41 14 -4 39 -15 55 -25 17 -10 64 -32 105 -48 87 -35 232 -96 275 -116 17 -8
91 -38 165 -67 74 -29 140 -56 145 -60 6 -4 35 -17 64 -29 30 -12 78 -32 106
-46 29 -13 57 -24 64 -24 6 0 19 -4 29 -9 9 -5 46 -21 82 -34 101 -39 188 -76
268 -113 40 -19 75 -34 78 -34 3 0 24 -9 47 -19 24 -11 74 -31 112 -46 37 -14
73 -29 79 -33 6 -5 40 -20 76 -35 36 -14 79 -32 95 -39 17 -6 35 -13 40 -13
23 -4 44 -18 39 -26 -3 -5 2 -9 10 -9 9 0 16 -5 16 -11 0 -6 7 -8 16 -5 8 3
29 -1 45 -9 16 -9 35 -13 41 -9 7 4 8 3 4 -4 -4 -8 0 -12 10 -12 14 0 15 -3 7
-11 -9 -9 -16 -8 -28 5 -9 9 -25 16 -36 16 -10 0 -19 5 -19 11 0 6 -7 9 -15 5
-20 -7 -86 24 -78 37 3 6 1 7 -4 4 -11 -7 -66 10 -126 37 -17 8 -57 25 -87 37
-30 11 -66 26 -80 32 -14 6 -27 11 -30 12 -12 4 -49 20 -112 46 -36 16 -71 29
-76 29 -6 0 -23 7 -39 15 -15 8 -80 34 -143 59 -63 25 -162 66 -219 91 -57 25
-110 45 -117 45 -8 0 -14 4 -14 9 0 5 -12 12 -27 16 -27 6 -247 92 -308 120
-46 21 -444 181 -570 230 -38 15 -83 33 -100 40 -16 7 -60 23 -97 35 l-67 21
-43 -23 c-24 -13 -45 -27 -46 -31 -2 -4 -10 -3 -17 3 -10 8 -15 6 -20 -9 -3
-12 -12 -27 -19 -34 -11 -11 -10 -29 9 -106 13 -50 27 -104 33 -119 6 -15 25
-74 42 -132 63 -204 92 -295 100 -315 4 -11 22 -67 40 -125 33 -110 47 -152
60 -185 10 -24 37 -118 46 -160 4 -16 10 -34 14 -40 4 -5 11 -26 15 -45 4 -19
14 -47 21 -62 14 -27 10 -58 -8 -58 -5 0 -6 10 -3 21 5 15 4 19 -4 15 -6 -4
-11 -1 -11 8 0 14 -82 271 -99 311 -8 18 -126 373 -174 520 -22 70 -118 333
-141 387 -13 29 -20 35 -37 31 -16 -4 -20 -12 -16 -29 4 -25 -7 -33 -17 -11
-5 9 -8 8 -13 -3 -10 -23 -85 -90 -100 -90 -4 0 -25 -18 -47 -40 -21 -22 -43
-40 -48 -40 -5 0 -24 -15 -42 -32 -55 -55 -96 -88 -109 -88 -7 0 -19 -9 -27
-20 -8 -11 -24 -20 -35 -20 -11 0 -40 -21 -65 -46 -24 -25 -59 -54 -76 -65
-18 -11 -35 -26 -38 -34 -3 -8 -12 -15 -21 -15 -8 0 -15 -4 -15 -9 0 -5 -18
-16 -40 -25 -22 -9 -40 -22 -40 -29 0 -7 -17 -21 -37 -32 -21 -11 -49 -30 -63
-42 -14 -13 -33 -23 -42 -23 -10 0 -18 -7 -18 -15 0 -8 -16 -21 -35 -29 -19
-8 -45 -24 -57 -36 -12 -11 -33 -23 -45 -26 -13 -4 -23 -10 -23 -14 0 -4 -10
-10 -22 -14 -13 -3 -36 -17 -52 -30 -16 -14 -38 -28 -50 -32 -11 -4 -39 -19
-61 -33 -22 -15 -60 -33 -84 -41 -25 -8 -46 -22 -49 -32 -3 -12 -16 -18 -46
-20 -26 -2 -40 -7 -39 -15 2 -8 -8 -13 -27 -13 -25 0 -30 4 -30 25 0 25 -14
33 -25 15 -3 -5 -19 -10 -34 -10 -20 0 -34 -8 -45 -25 -10 -15 -22 -23 -28
-19 -8 5 -5 10 8 15 18 7 18 8 -1 8 -11 0 -29 -6 -39 -14 -18 -14 -18 -15 -2
-15 9 0 14 -5 11 -10 -4 -6 -10 -8 -15 -5 -13 8 -46 -11 -101 -57 -25 -21 -50
-38 -56 -38 -6 0 -13 -3 -15 -8 -1 -4 -47 -42 -101 -85 -54 -42 -93 -77 -87
-77 6 0 9 -4 6 -9 -3 -4 8 -7 24 -5 16 2 32 -1 35 -6 3 -6 19 -10 35 -10 16 0
68 -10 115 -22 68 -17 83 -24 74 -35 -6 -7 -17 -13 -24 -13 -8 0 -22 -11 -33
-25 -11 -14 -25 -25 -31 -25 -6 0 -11 -4 -11 -9 0 -12 -59 -71 -71 -71 -5 0
-9 7 -9 16 0 14 -1 14 -16 0 -8 -9 -26 -16 -40 -16 -15 0 -24 -6 -24 -15 0
-11 -11 -15 -40 -15 -22 0 -40 -4 -40 -10 0 -5 -16 -10 -35 -10 -29 0 -36 4
-41 25 -3 14 -3 40 0 58 4 17 6 44 6 59 0 15 4 29 10 33 5 3 10 13 10 21 0 11
-3 12 -12 4 -7 -5 -38 -29 -69 -53 -108 -82 -123 -93 -243 -186 -147 -115
-235 -183 -301 -233 -27 -21 -56 -43 -63 -49 -7 -6 -20 -8 -29 -5 -15 6 15 33
152 141 21 17 43 35 49 40 6 6 45 37 86 70 41 33 84 68 95 78 11 10 45 37 75
60 30 23 57 44 60 47 3 3 41 34 85 69 44 36 89 73 100 83 11 10 85 70 165 133
80 63 167 134 194 157 26 23 84 71 127 106 71 57 78 65 68 84 -8 15 -8 19 0
13 7 -4 18 -1 26 5 12 10 15 10 15 0 0 -16 15 -3 15 13 1 7 6 11 13 10 7 -2
11 3 9 10 -1 7 6 11 18 9 15 -2 16 0 7 6 -11 7 -8 15 13 38 44 47 62 77 47 82
-6 2 -12 12 -12 23 0 15 6 19 29 17 24 -2 28 -5 21 -18 -14 -26 13 -20 33 7
10 12 13 23 7 23 -5 0 -10 13 -10 29 0 30 20 46 64 50 8 1 -1 17 -25 43 -25
27 -39 53 -39 69 0 81 103 99 134 24 8 -19 9 -19 16 5 5 14 8 19 9 13 2 -25
29 -12 40 19 9 24 8 34 -1 40 -10 6 -10 8 0 8 6 0 12 9 12 21 0 15 -5 19 -15
15 -8 -3 -15 -1 -15 4 0 6 7 10 15 10 8 0 15 8 15 19 0 27 22 41 68 44 22 1
38 5 36 9 -3 4 10 8 28 10 25 2 34 9 39 28 4 14 8 21 8 15 1 -5 6 -3 11 5 5 8
7 22 4 31 -5 17 48 79 67 79 5 0 9 6 9 13 0 7 9 18 20 25 12 7 25 23 30 37 5
13 21 29 37 37 15 7 34 26 41 41 7 15 60 75 118 133 57 58 104 111 104 117 0
7 20 32 45 55 27 25 48 55 52 72 4 23 11 30 28 30 28 0 85 54 85 81 0 11 7 19
16 19 20 0 44 24 44 44 0 9 7 13 20 11 11 -2 22 0 24 4 3 4 -19 7 -49 6 l-55
-2 0 38 c0 39 0 39 40 39 l40 0 0 40 c0 39 1 40 35 40 24 0 35 -5 35 -15 0 -8
5 -15 11 -15 6 0 9 7 5 15 -3 8 -1 15 4 15 6 0 10 -7 10 -15 0 -8 5 -15 11
-15 6 0 9 7 6 14 -4 10 -1 13 9 9 7 -3 14 -9 14 -14 0 -5 5 -9 10 -9 6 0 10
17 11 38 0 30 2 33 9 17 6 -14 9 -2 8 40 0 47 -2 54 -9 35 -6 -20 -8 -15 -6
22 1 26 -2 46 -8 45 -6 -1 -11 30 -13 74 l-3 76 -109 2 c-93 1 -110 -1 -110
-14 0 -11 -11 -15 -40 -15 -36 0 -40 -2 -40 -25 0 -22 -4 -25 -40 -25 l-40 0
0 -40 0 -40 -397 2 -398 3 -3 38 c-3 36 -4 37 -43 37 -35 0 -39 3 -39 25 0 23
-4 25 -40 25 -29 0 -40 4 -40 15 0 11 -11 15 -39 15 -29 0 -41 5 -44 18 -4 15
-5 15 -6 0 -1 -17 -37 -35 -48 -24 -4 3 2 6 12 6 15 0 16 3 7 12 -17 17 -32
-5 -32 -47 0 -16 -3 -40 -6 -53 -6 -21 -7 -21 -20 -5 -7 10 -14 14 -14 8 -1
-5 -3 -18 -5 -27 -2 -9 3 -19 11 -22 8 -3 14 -10 14 -16 0 -14 -27 -13 -32 2
-7 20 -30 -9 -68 -87 -19 -38 -38 -72 -41 -75 -3 -3 -21 -34 -40 -70 -18 -36
-35 -67 -39 -70 -3 -3 -16 -27 -30 -55 -13 -27 -32 -62 -42 -77 -10 -14 -18
-33 -18 -42 0 -9 -4 -16 -9 -16 -11 0 -41 -56 -41 -76 0 -7 -6 -17 -13 -21 -7
-4 -35 -53 -62 -107 -27 -55 -54 -104 -60 -110 -5 -6 -22 -36 -38 -66 -26 -53
-83 -158 -153 -285 -19 -33 -51 -94 -71 -135 -21 -41 -40 -77 -43 -80 -3 -3
-21 -34 -39 -70 -19 -36 -42 -76 -51 -90 -9 -14 -29 -50 -44 -80 -15 -30 -38
-73 -52 -95 -27 -44 -44 -81 -44 -96 0 -5 -4 -9 -8 -9 -4 0 -25 -35 -46 -77
-21 -43 -55 -109 -76 -148 -21 -38 -51 -96 -67 -127 -15 -32 -31 -57 -34 -58
-9 0 -183 184 -209 220 -21 30 -14 45 15 34 10 -4 15 -14 12 -25 -4 -14 0 -19
15 -19 10 0 17 -4 13 -9 -3 -5 -1 -12 5 -16 5 -3 10 1 10 9 0 9 5 16 10 16 6
0 10 18 10 40 l0 40 -47 -2 c-27 -1 -56 -8 -65 -16 -15 -13 -19 -12 -34 3 -13
12 -13 16 -3 15 33 -5 39 1 39 40 0 22 -4 40 -10 40 -5 0 -10 9 -10 20 0 19
-5 21 -62 18 -58 -3 -63 -1 -60 17 6 32 15 36 65 26 28 -5 50 -5 53 1 3 4 2 8
-3 7 -4 -1 -23 -1 -40 0 -31 1 -33 3 -33 36 0 34 1 35 40 35 l40 0 0 70 0 70
40 0 c38 0 40 -2 40 -30 0 -28 2 -30 40 -30 l40 0 0 40 0 40 40 0 40 0 0 120
0 120 -40 0 -40 0 0 40 c0 36 3 40 25 40 23 0 25 4 25 40 0 36 -2 40 -25 40
-20 0 -25 5 -25 25 0 23 -4 25 -40 25 -29 0 -40 4 -40 15 0 11 11 15 40 15
l40 0 0 80 0 80 40 0 40 0 0 80 0 80 -40 0 -40 0 0 40 c0 40 0 40 40 40 l40 0
2 238 3 237 38 3 37 3 0 79 0 79 -42 3 -43 3 3 60 3 60 -21 -37 c-26 -49 -25
-64 5 -84 28 -18 33 -51 10 -60 -8 -4 -12 -10 -9 -15 3 -5 1 -9 -5 -9 -5 0
-11 19 -13 43 -2 29 -8 42 -18 42 -9 0 -17 -16 -23 -42 -5 -25 -14 -43 -22
-43 -7 0 -16 -12 -19 -26 -4 -15 -23 -60 -42 -100 -19 -41 -42 -93 -50 -116
-8 -23 -20 -46 -27 -50 -8 -5 -7 -8 6 -8 9 0 17 -5 17 -11 0 -6 -9 -9 -20 -6
-15 4 -20 0 -20 -14 0 -11 -10 -33 -22 -50 -13 -17 -22 -44 -22 -64 0 -19 -3
-29 -7 -23 -5 8 -12 1 -19 -18 -22 -54 -65 -139 -72 -142 -5 -2 -8 -15 -8 -28
0 -16 -4 -23 -11 -18 -9 5 -10 -1 -5 -20 4 -17 3 -25 -5 -24 -13 3 -30 -47
-23 -67 3 -7 -4 -15 -15 -18 -13 -3 -22 -17 -26 -41 -4 -20 -10 -36 -14 -36
-9 0 -36 -72 -32 -88 1 -7 -9 -22 -23 -33 -14 -11 -26 -26 -26 -33 0 -7 -13
-39 -29 -72 -44 -92 -61 -131 -61 -142 0 -6 -6 -17 -13 -24 -7 -7 -21 -30 -30
-50 -10 -21 -22 -38 -27 -38 -5 0 -13 -12 -16 -27 -7 -28 -45 -111 -137 -302
-27 -57 -53 -116 -57 -130 -4 -14 -13 -25 -19 -23 -9 2 -10 -5 -6 -19 6 -18 4
-21 -10 -15 -14 5 -16 2 -12 -13 3 -11 -20 -68 -54 -137 -32 -66 -59 -122 -59
-126 0 -12 -42 -79 -47 -74 -3 2 2 17 10 33 18 35 48 101 78 173 13 30 27 58
33 62 5 3 10 14 11 25 1 10 7 31 14 46 6 16 11 30 11 33 0 2 11 21 23 42 13
20 34 65 46 100 11 34 25 70 31 80 36 66 121 256 126 284 4 18 12 42 19 53 6
11 22 47 34 79 12 32 37 88 56 124 18 35 31 72 28 81 -4 9 -2 13 2 8 9 -8 38
48 50 96 6 23 5 26 -11 21 -11 -3 -4 4 14 16 29 20 52 63 40 75 -4 4 -113 -7
-303 -31 -22 -3 -105 -12 -185 -20 -80 -8 -161 -17 -180 -19 -19 -3 -82 -9
-140 -15 -58 -6 -191 -22 -296 -35 -105 -14 -216 -26 -245 -27 -30 -1 -59 -5
-64 -9 -6 -4 -26 -8 -45 -7 -19 0 -89 -7 -155 -16 -66 -9 -140 -14 -163 -11
-49 7 -50 9 -7 19 22 5 26 4 15 -4 -21 -14 21 -13 75 1 22 6 54 12 70 14 17 2
138 19 270 38 132 19 290 40 350 47 61 7 153 19 205 27 52 8 129 18 170 23 41
5 120 16 175 25 55 9 165 25 244 35 79 11 146 21 148 24 3 2 -5 14 -16 25 -12
12 -21 24 -21 29 0 4 -18 27 -40 51 -22 24 -40 50 -40 57 0 8 -4 14 -9 14 -4
0 -37 35 -72 78 -35 42 -71 84 -80 92 -9 8 -38 44 -65 80 -27 36 -57 74 -67
85 -11 11 -40 47 -65 80 -25 33 -49 62 -52 65 -3 3 -21 25 -40 50 -19 25 -37
47 -40 50 -4 3 -46 52 -94 110 -117 141 -158 189 -178 212 -9 10 -31 38 -50
60 -18 23 -60 74 -93 113 -33 39 -76 90 -95 114 -54 66 -118 142 -162 193 -9
10 -30 36 -46 56 -45 55 -95 117 -212 257 -58 70 -131 159 -163 199 -32 39
-66 80 -75 91 -10 11 -49 58 -87 105 -38 47 -75 92 -84 101 -9 9 -30 34 -48
55 -17 22 -40 48 -50 59 -10 11 -58 70 -107 130 -49 61 -95 117 -102 125 -42
46 -87 99 -106 127 l-23 33 -1335 0 -1335 0 1 -297 c1 -164 5 -536 8 -828 7
-494 4 -576 -18 -554 -10 9 -15 329 -16 954 -1 330 -4 628 -7 663 l-6 62
-9153 0 -9154 0 0 -10000z m18104 9928 c46 -20 46 -74 1 -98 -21 -11 -29 -11
-49 0 -53 28 -41 89 21 109 1 1 13 -4 27 -11z m-1297 -136 c33 -44 2 -112 -51
-112 -51 0 -85 50 -65 94 21 46 87 56 116 18z m3763 -12 c25 -29 26 -90 3
-119 -38 -46 -126 -42 -152 8 -21 38 -13 90 17 117 23 22 34 25 70 21 28 -3
49 -13 62 -27z m-16098 -379 c-8 -4 -19 -17 -25 -28 -38 -62 -60 -93 -69 -93
-5 0 -6 -5 -2 -11 3 -6 0 -15 -7 -20 -8 -4 -14 -12 -14 -16 0 -10 -47 -74 -94
-128 -155 -179 -368 -384 -502 -483 -35 -26 -67 -50 -70 -55 -3 -5 -9 -8 -13
-8 -17 2 -23 -1 -51 -27 -33 -31 -90 -72 -99 -72 -7 0 36 68 79 125 138 186
488 542 704 715 24 19 49 41 56 48 8 6 20 12 28 12 8 0 17 7 21 15 3 9 16 20
28 25 29 11 47 12 30 1z m24728 -191 c0 -5 -4 -10 -10 -10 -5 0 -10 5 -10 10
0 6 5 10 10 10 6 0 10 -4 10 -10z m-11503 -122 c22 -28 22 -48 0 -74 -29 -33
-70 -26 -87 17 -11 25 -10 32 5 49 20 22 67 27 82 8z m-172 -43 c30 -29 32
-54 6 -83 -23 -27 -78 -30 -97 -4 -26 33 -12 90 26 105 28 10 41 7 65 -18z
m-1222 -73 c37 -33 5 -102 -47 -102 -32 0 -69 45 -60 74 15 52 64 65 107 28z
m12787 3 c-7 -8 -20 -14 -29 -14 -13 1 -13 2 2 6 9 2 17 9 17 14 0 5 5 9 11 9
8 0 8 -5 -1 -15z m-12071 -305 c0 -9 -4 -8 -9 5 -5 11 -9 27 -9 35 0 9 4 8 9
-5 5 -11 9 -27 9 -35z m61 -168 c0 -21 -2 -24 -10 -12 -13 20 -13 53 0 45 6
-3 10 -18 10 -33z m4625 3 c33 -32 34 -89 3 -122 -25 -26 -91 -32 -120 -9 -42
32 -42 121 0 146 33 19 91 12 117 -15z m-1628 -20 c28 -20 46 -75 34 -106 -15
-40 -47 -61 -92 -63 -34 -1 -46 5 -70 32 -16 18 -29 41 -29 52 0 29 19 72 38
86 23 18 93 17 119 -1z m-2947 -107 c0 -10 10 -36 21 -58 12 -22 19 -49 16
-60 -3 -13 0 -20 10 -20 10 0 13 -6 9 -16 -3 -9 -6 -21 -6 -27 0 -29 -19 15
-35 81 -9 40 -21 75 -27 78 -5 3 -6 14 -3 23 3 10 -1 24 -10 31 -8 7 -15 22
-15 34 1 17 5 14 20 -14 11 -19 19 -43 20 -52z m100 -297 c0 -13 3 -21 7 -18
10 11 63 -156 56 -178 -5 -17 -8 -14 -15 15 -20 82 -33 120 -40 120 -4 0 -8 8
-8 18 0 10 -3 22 -7 25 -15 15 -41 108 -36 127 4 17 10 10 24 -32 10 -29 18
-64 19 -77z m375 -36 c30 -29 31 -49 5 -75 -39 -39 -100 -16 -100 37 0 32 26
63 52 63 10 0 30 -11 43 -25z m9135 -195 c0 -47 -4 -80 -10 -80 -6 0 -10 33
-10 80 0 47 4 80 10 80 6 0 10 -33 10 -80z m-9416 -20 c-1 -22 2 -40 7 -40 5
0 9 -7 9 -15 0 -8 4 -15 8 -15 5 0 16 -26 26 -57 10 -32 24 -71 31 -88 34 -77
57 -156 50 -172 -6 -15 -8 -15 -12 -3 -17 53 -67 190 -79 217 -8 17 -14 35
-14 41 0 5 -9 31 -21 57 -11 26 -19 56 -16 66 3 11 0 19 -8 19 -8 0 -11 9 -7
26 7 39 27 12 26 -36z m12119 -17 c15 -20 27 -49 27 -66 0 -58 -48 -108 -103
-107 -22 1 -86 30 -86 40 0 3 -4 18 -10 33 -14 36 -4 77 23 99 12 10 26 22 31
27 6 6 28 10 50 10 34 0 44 -5 68 -36z m-9305 15 c30 -30 2 -88 -43 -88 -45 0
-67 67 -31 92 17 12 61 9 74 -4z m9339 -30 c-3 -8 -6 -5 -6 6 -1 11 2 17 5 13
3 -3 4 -12 1 -19z m-5517 -18 c0 -5 -5 -10 -11 -10 -5 0 -7 5 -4 10 3 6 8 10
11 10 2 0 4 -4 4 -10z m-40 -73 c0 -20 0 -20 -15 -1 -8 10 -14 33 -15 49 l0
30 15 -29 c8 -15 15 -38 15 -49z m5567 41 c-3 -8 -6 -5 -6 6 -1 11 2 17 5 13
3 -3 4 -12 1 -19z m-8347 -23 c17 -21 4 -64 -23 -74 -29 -11 -55 3 -63 34 -8
32 11 55 46 55 15 0 33 -7 40 -15z m2740 -35 c0 -5 -4 -10 -10 -10 -5 0 -10 5
-10 10 0 6 5 10 10 10 6 0 10 -4 10 -10z m3963 -25 c-7 -21 -13 -19 -13 6 0
11 4 18 10 14 5 -3 7 -12 3 -20z m-8728 -55 c-4 -7 2 -9 19 -4 16 4 26 2 26
-5 0 -6 -6 -8 -14 -5 -11 4 -13 0 -9 -15 4 -17 8 -19 19 -10 11 9 14 8 14 -2
-1 -15 -24 -49 -34 -49 -3 0 -6 8 -6 18 -1 16 -2 16 -14 -1 -16 -21 -29 -9
-15 13 12 20 11 50 -1 50 -5 0 -11 -10 -11 -22 -1 -20 -2 -21 -6 -4 -3 12 2
25 13 33 22 16 27 17 19 3z m4701 -36 c-4 -9 -9 -15 -11 -12 -3 3 -3 13 1 22
4 9 9 15 11 12 3 -3 3 -13 -1 -22z m-3355 -104 c29 -16 26 -75 -5 -95 -51 -34
-106 28 -72 80 17 26 45 32 77 15z m-2931 -164 c21 -60 20 -79 -6 -69 -32 12
-54 86 -38 128 9 23 21 8 44 -59z m2775 49 c39 -39 29 -97 -21 -115 -61 -24
-114 28 -93 90 19 52 75 65 114 25z m5931 -152 c-10 -10 -19 5 -10 18 6 11 8
11 12 0 2 -7 1 -15 -2 -18z m924 -143 c0 -5 -2 -10 -4 -10 -3 0 -8 5 -11 10
-3 6 -1 10 4 10 6 0 11 -4 11 -10z m-133 -112 c-3 -8 -6 -5 -6 6 -1 11 2 17 5
13 3 -3 4 -12 1 -19z m-102 -47 c3 -5 1 -12 -5 -16 -5 -3 -10 1 -10 9 0 18 6
21 15 7z m-8061 -17 c6 -16 -39 -84 -55 -84 -5 0 -9 -6 -9 -13 0 -12 -135
-169 -188 -217 -15 -14 -38 -38 -52 -53 l-24 -28 99 5 c55 3 89 2 75 0 -14 -3
-30 -10 -36 -15 -6 -5 -52 -18 -103 -28 -140 -30 -189 -78 -192 -191 -1 -19
-4 -46 -8 -60 -7 -24 -8 -23 -19 15 -7 22 -12 50 -12 63 0 12 -3 22 -6 22 -6
0 -79 -57 -106 -83 -31 -30 -155 -107 -172 -107 -44 0 -5 60 142 221 23 25 42
48 42 51 0 3 23 28 50 55 49 49 50 51 50 111 0 69 6 92 26 92 10 0 14 -14 14
-50 0 -27 4 -50 8 -50 5 0 40 29 78 64 39 36 108 95 155 133 212 170 230 181
243 147z m2795 -40 c8 -7 -54 -2 -79 6 -17 6 -9 7 25 3 28 -3 52 -7 54 -9z
m-101 -9 c1 -1 -5 -5 -15 -7 -10 -3 -24 1 -32 9 -10 12 -8 13 16 7 15 -4 29
-8 31 -9z m-138 -13 c-50 -3 -60 -6 -45 -13 17 -8 17 -9 -5 -4 -14 2 -36 5
-50 6 -53 3 34 17 100 16 l65 -1 -65 -4z m-187 -29 c-7 -2 -19 -2 -25 0 -7 3
-2 5 12 5 14 0 19 -2 13 -5z m-70 -10 c-7 -2 -21 -2 -30 0 -10 3 -4 5 12 5 17
0 24 -2 18 -5z m-256 -9 c-3 -3 -12 -4 -19 -1 -8 3 -5 6 6 6 11 1 17 -2 13 -5z
m160 0 c-3 -3 -12 -4 -19 -1 -8 3 -5 6 6 6 11 1 17 -2 13 -5z m-110 -10 c-3
-3 -12 -4 -19 -1 -8 3 -5 6 6 6 11 1 17 -2 13 -5z m8663 -54 c11 -11 20 -27
20 -35 0 -8 -9 -24 -20 -35 -11 -11 -27 -20 -35 -20 -21 0 -55 36 -55 59 0 25
26 51 51 51 10 0 28 -9 39 -20z m-5780 -190 l0 -40 -40 0 -40 0 0 40 0 40 40
0 40 0 0 -40z m-253 -359 c-9 -3 -36 28 -37 43 0 5 10 -2 23 -15 12 -13 18
-26 14 -28z m4388 33 c36 -23 35 -87 0 -110 -40 -26 -88 -12 -104 31 -25 70
41 120 104 79z m-9991 -107 c5 4 6 3 3 -3 -3 -6 2 -44 12 -85 10 -41 14 -77 9
-80 -5 -3 -6 -14 -3 -25 3 -10 -10 13 -29 51 -37 74 -80 215 -66 215 4 0 6 10
4 23 -3 12 10 -6 28 -41 19 -35 38 -59 42 -55z m11593 27 c-3 -3 -12 -4 -19
-1 -8 3 -5 6 6 6 11 1 17 -2 13 -5z m-5897 -30 c0 -8 -6 -11 -15 -8 -8 4 -15
12 -15 20 0 8 6 11 15 8 8 -4 15 -12 15 -20z m1322 12 c10 -7 24 -29 33 -49
40 -97 -81 -172 -157 -97 -27 28 -30 36 -25 73 7 54 44 87 95 87 20 0 45 -7
54 -14z m-1262 -56 c0 -11 -2 -20 -3 -20 -2 0 -12 9 -22 20 -18 19 -17 20 3
20 15 0 22 -6 22 -20z m5200 -119 c17 -32 12 -60 -15 -77 -25 -16 -63 -12 -77
10 -12 17 -9 61 4 74 20 20 76 15 88 -7z m-1968 -83 c9 -7 19 -25 22 -41 5
-21 1 -33 -18 -52 -14 -14 -34 -25 -46 -25 -49 0 -80 79 -44 114 19 19 64 21
86 4z m2090 -78 c77 -60 10 -188 -85 -165 -71 18 -97 115 -44 161 35 30 94 32
129 4z m-1654 -135 c-3 -13 -1 -26 3 -27 5 -2 12 -18 15 -37 5 -24 4 -32 -4
-27 -15 9 -34 80 -26 100 9 25 17 19 12 -9z m-4582 -70 c-9 -13 -16 -32 -17
-42 0 -12 -2 -14 -6 -5 -3 8 3 32 13 54 10 22 20 35 22 29 2 -6 -3 -23 -12
-36z m4618 -50 c-4 -8 -10 -12 -15 -9 -14 8 -10 24 6 24 9 0 12 -6 9 -15z m26
-61 c0 -8 9 -44 21 -80 12 -36 19 -68 15 -71 -7 -7 -26 41 -33 84 -3 18 -11
37 -18 43 -7 6 -11 20 -8 30 6 22 23 17 23 -6z m-4700 -39 c0 -5 -5 -3 -10 5
-5 8 -10 20 -10 25 0 6 5 3 10 -5 5 -8 10 -19 10 -25z m6868 -21 c22 -15 30
-57 14 -80 -27 -42 -95 -35 -112 11 -14 36 -13 42 10 65 24 24 57 26 88 4z
m-2111 -136 c-3 -7 -5 -2 -5 12 0 14 2 19 5 13 2 -7 2 -19 0 -25z m-4840 -10
c-3 -8 -6 -5 -6 6 -1 11 2 17 5 13 3 -3 4 -12 1 -19z m7165 1 c26 -14 49 -69
41 -100 -27 -112 -183 -89 -183 26 0 60 85 104 142 74z m-7191 -42 c-10 -9
-11 -8 -5 6 3 10 9 15 12 12 3 -3 0 -11 -7 -18z m4889 -21 c0 -26 -6 -18 -14
19 -5 22 -4 26 4 15 5 -8 10 -24 10 -34z m1564 -2 c32 -32 10 -94 -34 -94 -26
0 -50 27 -50 55 0 28 24 55 50 55 10 0 26 -7 34 -16z m-1528 -111 c3 -18 10
-30 15 -27 5 3 9 -6 9 -20 0 -14 6 -43 14 -63 21 -57 66 -201 66 -210 -1 -4
-7 4 -15 18 -26 48 -127 363 -124 387 1 13 28 -53 35 -85z m-1752 52 c34 -31
36 -88 4 -122 -31 -33 -91 -32 -123 3 -76 81 38 195 119 119z m-2632 -65 c10
-10 18 -34 18 -53 0 -97 -138 -106 -156 -10 -5 27 -1 37 25 64 27 26 37 30 63
25 18 -3 40 -15 50 -26z m-374 -12 c20 -20 15 -76 -9 -88 -52 -28 -106 28 -74
76 17 26 62 33 83 12z m6508 -61 c74 -64 -16 -169 -93 -109 -38 29 -35 95 5
116 38 21 57 20 88 -7z m-5312 -18 c-3 -5 -10 -9 -15 -9 -6 0 -7 5 -3 12 4 7
3 8 -4 4 -6 -4 -9 -12 -7 -19 5 -14 -65 -67 -89 -67 -14 0 -14 2 1 20 10 11
23 20 30 20 7 0 13 5 13 10 0 6 8 10 17 10 9 0 14 3 11 6 -12 11 26 41 39 31
7 -5 10 -13 7 -18z m-134 -96 c0 -5 -12 -16 -25 -26 -29 -21 -36 -2 -7 19 19
15 32 18 32 7z m-80 -63 c-14 -25 -47 -44 -55 -30 -3 5 0 10 7 10 8 0 21 9 31
20 22 26 31 26 17 0z m786 -17 c20 -22 24 -34 20 -58 -6 -31 -47 -75 -71 -75
-31 0 -65 21 -79 49 -43 83 66 153 130 84z m-902 -74 c-3 -5 -10 -7 -15 -3 -5
3 -7 10 -3 15 3 5 10 7 15 3 5 -3 7 -10 3 -15z m4031 -70 c14 -45 24 -86 22
-93 -2 -6 -10 9 -17 34 -6 25 -15 50 -20 55 -8 11 -21 85 -15 85 2 0 15 -36
30 -81z m-4080 31 c3 -6 -1 -7 -9 -4 -18 7 -21 14 -7 14 6 0 13 -4 16 -10z
m-39 -25 c-1 -8 -5 -17 -8 -21 -5 -4 -4 16 1 34 3 9 9 -1 7 -13z m4171 -161
c-3 -3 -12 -4 -19 -1 -8 3 -5 6 6 6 11 1 17 -2 13 -5z m19 -61 c9 -26 10 -41
3 -52 -9 -14 -10 -14 -5 1 3 10 -1 30 -9 45 -15 29 -20 62 -8 49 4 -3 12 -23
19 -43z m-1128 -203 c27 -17 32 -25 32 -60 0 -53 -27 -80 -79 -80 -48 0 -71
26 -71 81 0 29 6 43 26 58 33 26 50 26 92 1z m-3694 -76 c37 -36 6 -104 -47
-104 -47 1 -65 19 -59 58 7 54 71 82 106 46z m2096 -694 c20 -20 25 -47 14
-87 -8 -28 -61 -47 -96 -34 -29 11 -38 29 -38 76 0 59 77 88 120 45z m-6710
-441 c-11 -8 -8 -9 15 -4 16 4 27 3 23 -1 -4 -4 -1 -12 8 -18 12 -9 13 -17 5
-38 -25 -66 -111 -52 -111 18 0 20 37 54 58 54 15 0 15 -2 2 -11z m8029 -286
c34 -29 37 -73 7 -106 -50 -54 -126 -22 -126 53 0 29 6 43 22 54 30 21 71 20
97 -1z m-9583 -449 c-4 -9 -9 -15 -11 -12 -3 3 -3 13 1 22 4 9 9 15 11 12 3
-3 3 -13 -1 -22z m8575 -1269 c-1 -22 -7 -41 -12 -43 -5 -2 -9 -10 -9 -18 0
-8 -4 -14 -10 -14 -5 0 -10 -6 -10 -13 0 -8 -13 -33 -30 -55 -16 -23 -30 -44
-30 -47 0 -2 -9 -15 -21 -27 -33 -37 -99 -127 -99 -135 0 -5 -9 -14 -20 -21
-11 -7 -20 -19 -20 -27 0 -8 -4 -15 -10 -15 -5 0 -10 -5 -10 -11 0 -6 -11 -20
-25 -31 -14 -11 -25 -26 -25 -33 0 -8 -17 -27 -37 -42 -21 -15 -39 -31 -41
-35 -2 -5 -10 -8 -18 -8 -8 0 -14 -6 -14 -14 0 -8 -9 -18 -20 -21 -11 -3 -20
-11 -20 -16 0 -19 -10 -27 -345 -266 -209 -149 -208 -148 -399 -338 -167 -165
-257 -250 -307 -289 -13 -11 -53 -44 -89 -75 -36 -31 -85 -72 -110 -91 -25
-19 -49 -38 -55 -42 -80 -63 -170 -118 -196 -118 -15 0 -4 56 16 84 71 97 235
294 281 337 22 20 48 47 60 60 11 13 75 76 141 140 105 100 122 121 128 155
11 68 39 193 42 190 2 -2 23 15 46 37 73 69 110 102 172 152 33 28 62 55 64
60 7 16 105 105 116 105 6 0 23 16 39 35 16 19 35 35 42 35 7 0 14 3 16 8 6
14 136 122 147 122 6 0 11 5 11 10 0 6 6 10 13 10 7 0 26 14 43 31 16 17 48
42 72 56 23 14 42 28 42 32 0 4 14 16 31 26 17 11 43 28 58 37 14 9 40 24 58
33 18 9 37 23 44 31 6 8 18 14 25 14 8 0 14 4 14 8 0 5 18 17 40 28 22 10 40
25 40 32 0 6 11 12 23 12 13 0 27 3 30 7 4 4 29 14 55 23 46 16 47 16 61 -4 9
-12 14 -37 12 -61z m-1434 -1647 c15 -12 18 -42 3 -33 -5 3 -10 1 -10 -5 0 -6
-11 -15 -24 -20 -13 -5 -27 -18 -31 -29 -3 -12 -15 -21 -26 -21 -10 0 -19 -6
-19 -12 -1 -26 -40 35 -40 62 0 34 33 77 63 82 24 4 64 -7 84 -24z m-513 -417
c15 -16 15 -22 4 -40 -35 -56 -109 -20 -78 39 14 25 51 26 74 1z m-496 -20
c25 -21 27 -38 9 -63 -37 -48 -114 -8 -86 45 22 41 45 47 77 18z m52 -191 c41
-41 10 -110 -50 -110 -34 0 -70 30 -70 59 0 10 9 30 21 45 25 32 70 35 99 6z
m-4263 -175 c0 -8 -6 -15 -13 -15 -15 0 -26 15 -17 24 12 11 30 6 30 -9z
m-5395 -192 c38 -35 14 -87 -39 -81 -38 4 -55 49 -28 78 22 24 42 25 67 3z m2
-589 c49 -48 -15 -113 -66 -67 -22 20 -23 41 -1 65 20 22 46 23 67 2z m-6046
-2136 c-38 -33 -45 -35 -58 -22 -13 14 -10 20 30 54 41 36 46 38 58 22 11 -15
7 -22 -30 -54z m-1854 -1424 c9 -3 16 -10 16 -16 0 -5 -6 -6 -12 -2 -8 4 -10
3 -5 -2 5 -5 14 -9 20 -9 19 0 18 -20 -3 -43 -12 -12 -25 -22 -30 -22 -14 0
-50 38 -50 53 0 23 18 40 35 34 9 -4 14 -3 10 3 -7 12 -3 12 19 4z m-1338
-1306 c5 -7 3 -8 -5 -4 -8 6 -11 2 -9 -10 2 -14 -2 -18 -16 -16 -10 2 -15 -1
-12 -7 4 -5 -67 -76 -156 -156 -90 -81 -169 -160 -176 -176 -7 -16 -62 -80
-122 -143 -97 -99 -110 -117 -110 -148 0 -32 -14 -58 -32 -58 -4 0 -8 9 -8 19
0 33 -19 34 -56 2 -19 -17 -58 -43 -87 -57 -30 -16 -96 -70 -162 -134 -135
-131 -234 -220 -247 -220 -20 0 64 93 285 317 199 201 229 234 217 248 -11 13
-8 19 15 41 26 24 30 25 41 9 11 -15 20 -11 86 47 170 147 536 455 545 457 1
1 5 -4 9 -11z"/>
<path d="M18348 12923 c7 -3 16 -2 19 1 4 3 -2 6 -13 5 -11 0 -14 -3 -6 -6z"/>
<path d="M18328 19845 c3 -88 6 -162 8 -164 7 -8 2 223 -5 274 -4 28 -5 -22
-3 -110z"/>
<path d="M21070 19995 c0 -5 144 -185 204 -256 35 -40 42 -48 145 -174 41 -49
79 -94 85 -100 6 -5 40 -46 75 -90 36 -44 75 -91 87 -105 28 -31 235 -278 287
-342 21 -26 43 -53 50 -60 7 -7 39 -47 72 -88 33 -41 62 -77 65 -80 6 -6 138
-161 185 -218 54 -66 346 -416 368 -442 12 -14 37 -45 56 -70 19 -25 41 -52
50 -60 9 -8 42 -47 73 -85 31 -39 68 -83 82 -99 15 -15 26 -30 26 -33 0 -3 12
-18 28 -33 15 -14 56 -62 92 -106 35 -43 67 -81 70 -84 3 -3 30 -34 60 -70 30
-35 69 -80 87 -100 17 -19 42 -47 55 -63 13 -15 27 -24 31 -21 10 10 9 52 -3
73 -8 16 -13 52 -20 136 l-1 20 -10 -20 c-8 -17 -9 -17 -5 5 5 24 -3 88 -24
205 -5 28 -14 86 -21 130 -6 44 -22 141 -36 215 -13 74 -35 198 -48 275 -35
203 -52 300 -71 390 -9 44 -22 118 -29 165 -8 47 -21 121 -30 165 -8 44 -24
136 -35 205 -19 117 -28 167 -51 280 -5 25 -14 74 -19 110 -6 36 -15 81 -20
100 -5 19 -11 60 -15 90 -3 30 -10 66 -15 80 -5 14 -12 55 -15 93 l-7 67 -929
0 c-511 0 -929 -2 -929 -5z m1760 -203 c23 -24 26 -84 7 -122 -7 -13 -29 -30
-49 -38 -32 -12 -40 -12 -73 4 -41 19 -55 46 -55 104 0 56 37 84 103 77 31 -3
55 -11 67 -25z m167 -344 c-3 -8 -6 -5 -6 6 -1 11 2 17 5 13 3 -3 4 -12 1 -19z"/>
<path d="M22986 19989 c3 -5 10 -35 14 -67 14 -87 38 -253 43 -292 3 -19 14
-78 25 -130 11 -52 23 -120 27 -150 4 -30 14 -84 22 -120 8 -36 18 -94 22
-130 5 -36 13 -90 19 -120 6 -30 16 -89 22 -130 15 -106 33 -202 44 -238 3 -9
10 -53 16 -97 10 -80 18 -127 39 -240 14 -72 42 -239 66 -390 10 -60 21 -119
25 -130 8 -21 28 -134 56 -315 9 -57 20 -111 24 -120 9 -16 32 -160 32 -197 0
-13 3 -23 7 -23 9 0 38 59 58 120 8 25 24 57 34 72 11 14 19 30 19 35 0 9 31
81 50 116 41 74 80 168 80 193 0 13 7 27 15 30 8 4 15 10 15 15 0 5 21 51 46
104 25 52 47 107 48 122 2 15 8 29 15 31 6 2 11 12 11 21 0 10 3 21 7 25 4 4
6 24 5 44 -2 29 2 40 19 50 17 11 20 11 14 0 -3 -7 1 -4 9 6 18 22 21 43 7 48
-5 2 -12 17 -15 33 -4 17 -3 24 0 17 3 -7 14 -17 25 -22 15 -8 17 -7 13 4 -3
8 3 19 16 26 26 14 22 32 -11 42 -22 7 -22 7 4 4 40 -5 61 29 52 86 -4 23 -12
50 -18 59 -7 11 -6 22 1 35 10 17 11 15 12 -13 0 -17 5 -35 11 -39 6 -3 9 -15
6 -25 -8 -28 6 -23 20 8 10 21 10 28 0 35 -9 6 -9 10 -1 16 6 4 14 17 18 30 4
12 13 22 21 22 7 0 20 15 29 34 18 39 20 56 6 56 -5 0 -10 5 -10 10 0 6 12 10
26 10 23 0 25 3 19 31 -4 17 -3 29 2 26 4 -3 13 4 18 16 8 17 7 26 -7 40 -17
16 -18 16 -18 -8 0 -22 -4 -25 -40 -25 l-40 0 0 40 0 40 -40 0 -40 0 0 80 0
80 40 0 40 0 0 80 0 80 -40 0 -40 0 0 -80 0 -80 -80 0 -80 0 0 80 0 80 -40 0
-40 0 0 40 0 40 -40 0 -40 0 0 59 c0 32 -3 86 -6 120 l-7 61 -33 0 -34 0 0 80
0 80 -39 0 -38 0 -8 160 -7 160 -49 0 -49 0 0 40 c0 36 -2 40 -25 40 -23 0
-25 4 -25 40 l0 41 -190 -1 c-119 -1 -188 -5 -184 -11z m36 -81 c-7 -7 -12 -8
-12 -2 0 14 12 26 19 19 2 -3 -1 -11 -7 -17z m978 -1573 c0 -8 -7 -15 -16 -15
-14 0 -14 3 -4 15 7 8 14 15 16 15 2 0 4 -7 4 -15z m-153 -357 c-3 -8 -6 -5
-6 6 -1 11 2 17 5 13 3 -3 4 -12 1 -19z m-37 -148 c0 -5 -2 -10 -4 -10 -3 0
-8 5 -11 10 -3 6 -1 10 4 10 6 0 11 -4 11 -10z"/>
<path d="M28480 19880 c0 -100 -2 -120 -15 -120 -11 0 -15 -11 -15 -40 0 -29
4 -40 15 -40 12 0 15 -15 15 -79 l0 -79 -81 -4 c-44 -2 -84 0 -90 5 -5 4 -4 2
1 -5 21 -25 11 -55 -22 -66 l-33 -12 33 5 c31 4 32 3 33 -33 1 -20 1 -58 -1
-84 -1 -38 1 -48 14 -48 12 0 16 -10 16 -40 0 -29 -4 -40 -15 -40 -9 0 -15 -9
-15 -25 0 -22 4 -25 40 -25 29 0 40 -4 40 -15 0 -11 11 -15 40 -15 36 0 40 3
40 25 0 23 4 25 40 25 29 0 40 4 40 15 0 11 -11 15 -40 15 l-40 0 0 81 0 81
196 -3 c150 -2 197 -6 201 -16 3 -8 21 -13 44 -13 21 0 39 -4 39 -10 0 -5 11
-10 25 -10 14 0 25 -5 25 -11 0 -11 25 -39 35 -39 3 0 3 5 0 10 -10 17 6 34
17 19 6 -10 7 -7 3 9 -4 13 -2 22 4 22 15 0 14 27 -1 33 -10 4 -10 6 0 6 6 1
21 -8 31 -18 16 -16 20 -17 25 -5 3 8 1 14 -5 14 -6 0 -7 5 -4 10 4 6 12 9 19
8 20 -5 96 61 89 77 -3 10 1 15 14 15 25 0 95 49 88 61 -4 5 4 13 17 18 13 5
34 21 47 35 14 14 30 26 38 26 7 0 13 5 13 10 0 12 16 28 89 90 29 25 65 56
80 68 44 40 183 165 221 199 l35 32 -597 1 -598 0 0 -40 c0 -29 -4 -40 -15
-40 -11 0 -15 11 -15 40 l0 40 -80 0 -80 0 0 -120z m830 -364 c0 -2 -7 -7 -16
-10 -8 -3 -12 -2 -9 4 6 10 25 14 25 6z m-58 -28 c-7 -7 -12 -8 -12 -2 0 14
12 26 19 19 2 -3 -1 -11 -7 -17z m-100 -53 c12 -27 6 -41 -12 -30 -6 4 -9 13
-6 21 3 8 1 14 -4 14 -6 0 -10 5 -10 10 0 19 21 10 32 -15z m48 -5 c0 -5 -2
-10 -4 -10 -3 0 -8 5 -11 10 -3 6 -1 10 4 10 6 0 11 -4 11 -10z m-240 -45 c0
-22 -4 -25 -40 -25 -36 0 -40 3 -40 25 0 23 4 25 40 25 36 0 40 -2 40 -25z"/>
<path d="M23523 19853 c4 -38 7 -92 7 -120 l0 -53 60 0 60 0 0 40 c0 36 -2 40
-25 40 -22 0 -25 4 -25 40 0 29 -4 40 -15 40 -11 0 -15 11 -15 40 0 37 -2 40
-26 40 l-27 0 6 -67z"/>
<path d="M23760 19720 c0 -29 4 -40 15 -40 11 0 15 11 15 40 0 29 -4 40 -15
40 -11 0 -15 -11 -15 -40z"/>
<path d="M28270 19670 c-8 -5 -12 -12 -9 -15 8 -8 39 5 39 16 0 11 -11 11 -30
-1z"/>
<path d="M23680 19473 c0 -27 3 -99 7 -160 l6 -113 114 0 113 0 0 40 0 40 -40
0 -40 0 0 40 0 40 -40 0 -40 0 0 40 c0 29 -4 40 -15 40 -11 0 -15 11 -15 40 0
36 -2 40 -25 40 -23 0 -25 -3 -25 -47z"/>
<path d="M23840 19480 c0 -29 4 -40 15 -40 11 0 15 11 15 40 0 29 -4 40 -15
40 -11 0 -15 -11 -15 -40z"/>
<path d="M28136 19353 c-3 -3 -6 -21 -6 -40 0 -23 5 -33 15 -33 10 0 15 10 15
34 0 34 -11 52 -24 39z"/>
<path d="M28718 19303 c-77 -4 -78 -4 -78 -31 0 -15 -2 -36 -4 -47 -2 -11 -1
-14 1 -7 3 7 21 12 44 12 21 0 39 5 39 10 0 6 18 10 40 10 38 0 40 2 40 30 0
17 -1 29 -2 28 -2 -1 -38 -4 -80 -5z"/>
<path d="M29180 19295 c-8 -9 -8 -15 -2 -15 12 0 26 19 19 26 -2 2 -10 -2 -17
-11z"/>
<path d="M28045 19250 c3 -5 14 -10 23 -10 15 0 15 2 2 10 -20 13 -33 13 -25
0z"/>
<path d="M28015 19220 c3 -5 14 -10 23 -10 15 0 15 2 2 10 -20 13 -33 13 -25
0z"/>
<path d="M28927 19183 c-12 -12 -7 -22 8 -17 8 4 15 10 15 15 0 11 -14 12 -23
2z"/>
<path d="M28120 19030 c-18 -12 -2 -12 25 0 13 6 15 9 5 9 -8 0 -22 -4 -30 -9z"/>
<path d="M28305 19020 c-3 -5 -1 -10 4 -10 6 0 11 5 11 10 0 6 -2 10 -4 10 -3
0 -8 -4 -11 -10z"/>
<path d="M28220 19010 c0 -5 14 -7 33 -3 45 8 47 13 4 13 -20 0 -37 -4 -37
-10z"/>
<path d="M24152 18855 c0 -16 2 -22 5 -12 2 9 2 23 0 30 -3 6 -5 -1 -5 -18z"/>
<path d="M24241 18834 c0 -11 3 -14 6 -6 3 7 2 16 -1 19 -3 4 -6 -2 -5 -13z"/>
<path d="M24386 18802 c-4 -13 -5 -26 -2 -29 10 -11 18 4 14 29 l-4 23 -8 -23z"/>
<path d="M24160 18790 c0 -5 5 -10 10 -10 6 0 10 5 10 10 0 6 -4 10 -10 10 -5
0 -10 -4 -10 -10z"/>
<path d="M24220 18778 c0 -28 -10 -42 -32 -51 -14 -5 -15 -10 -5 -31 7 -14 16
-26 20 -26 14 0 20 32 8 40 -10 5 -9 9 3 13 10 4 16 19 16 39 1 32 1 32 17 13
14 -18 15 -18 9 -2 -3 10 -6 21 -6 23 0 2 -7 4 -15 4 -9 0 -15 -9 -15 -22z"/>
<path d="M24317 18719 c-22 -25 -39 -68 -32 -80 3 -4 -3 -14 -15 -21 -23 -14
-28 -58 -6 -58 8 0 21 26 32 65 l19 65 11 -32 c9 -29 11 -30 16 -11 3 12 1 26
-5 32 -7 7 -6 15 3 26 8 10 10 19 4 25 -6 6 -16 2 -27 -11z"/>
<path d="M24448 18693 c7 -3 16 -2 19 1 4 3 -2 6 -13 5 -11 0 -14 -3 -6 -6z"/>
<path d="M27530 18596 c0 -9 5 -16 10 -16 6 0 10 4 10 9 0 6 -4 13 -10 16 -5
3 -10 -1 -10 -9z"/>
<path d="M24210 18501 c0 -7 7 -19 15 -27 19 -20 19 -5 0 20 -9 11 -15 14 -15
7z"/>
<path d="M24185 18449 c-4 -11 -4 -23 -2 -26 9 -8 27 7 27 22 0 23 -18 27 -25
4z"/>
<path d="M24157 18404 c-4 -4 -7 -17 -6 -28 0 -21 1 -21 10 -1 7 15 8 10 4
-17 l-6 -38 41 0 40 0 0 40 c0 36 -3 40 -24 40 -13 0 -31 2 -38 5 -8 3 -17 2
-21 -1z"/>
<path d="M24320 18360 c0 -29 4 -40 15 -40 11 0 15 11 15 40 0 29 -4 40 -15
40 -11 0 -15 -11 -15 -40z"/>
<path d="M24111 18285 c-13 -30 -26 -55 -29 -55 -4 0 -7 -28 -8 -63 -1 -34 1
-50 3 -34 2 15 9 27 14 27 5 0 9 15 9 34 0 19 4 36 10 38 8 3 32 99 26 105 -1
2 -13 -22 -25 -52z"/>
<path d="M25390 18250 c0 -6 7 -10 15 -10 8 0 15 2 15 4 0 2 -7 6 -15 10 -8 3
-15 1 -15 -4z"/>
<path d="M24240 18225 c0 -11 11 -15 40 -15 29 0 40 4 40 15 0 11 -11 15 -40
15 -29 0 -40 -4 -40 -15z"/>
<path d="M24052 18178 c-7 -18 -20 -48 -28 -66 -8 -18 -14 -51 -14 -72 l0 -40
60 0 60 0 0 40 c0 38 -2 40 -29 40 -16 0 -32 6 -34 13 -4 9 -8 8 -16 -3 -17
-24 -23 -4 -8 27 14 27 32 93 25 93 -2 0 -9 -15 -16 -32z"/>
<path d="M24133 18185 c-18 -20 -16 -25 7 -25 13 0 20 7 20 20 0 23 -10 25
-27 5z"/>
<path d="M24160 18040 c0 -29 4 -40 15 -40 11 0 15 11 15 40 0 29 -4 40 -15
40 -11 0 -15 -11 -15 -40z"/>
<path d="M26822 18020 c0 -14 2 -19 5 -12 2 6 2 18 0 25 -3 6 -5 1 -5 -13z"/>
<path d="M26801 17984 c0 -11 3 -14 6 -6 3 7 2 16 -1 19 -3 4 -6 -2 -5 -13z"/>
<path d="M27040 17990 c0 -5 4 -10 9 -10 6 0 13 5 16 10 3 6 -1 10 -9 10 -9 0
-16 -4 -16 -10z"/>
<path d="M26821 17934 c0 -11 3 -14 6 -6 3 7 2 16 -1 19 -3 4 -6 -2 -5 -13z"/>
<path d="M26960 17904 c0 -8 5 -12 10 -9 6 3 10 10 10 16 0 5 -4 9 -10 9 -5 0
-10 -7 -10 -16z"/>
<path d="M26890 17829 c0 -5 5 -7 10 -4 6 3 10 8 10 11 0 2 -4 4 -10 4 -5 0
-10 -5 -10 -11z"/>
<path d="M26812 17720 c0 -19 2 -27 5 -17 2 9 2 25 0 35 -3 9 -5 1 -5 -18z"/>
<path d="M26720 17664 c0 -8 5 -12 10 -9 6 3 10 10 10 16 0 5 -4 9 -10 9 -5 0
-10 -7 -10 -16z"/>
<path d="M25420 16010 c-9 -6 -10 -10 -3 -10 6 0 15 5 18 10 8 12 4 12 -15 0z"/>
<path d="M25320 15940 c0 -5 7 -10 16 -10 8 0 12 5 9 10 -3 6 -10 10 -16 10
-5 0 -9 -4 -9 -10z"/>
<path d="M23888 15868 c9 -9 15 -9 24 0 9 9 7 12 -12 12 -19 0 -21 -3 -12 -12z"/>
<path d="M23917 15820 c3 -11 9 -17 15 -14 5 3 4 12 -3 20 -16 19 -18 18 -12
-6z"/>
</g>
</svg>
